<svg width="25" height="25" viewBox="0 0 25 25" fill="none" xmlns="http://www.w3.org/2000/svg">
<path d="M8.72679 20.7418C9.56788 21.811 10.8892 22.5 12.375 22.5C13.8608 22.5 15.1821 21.811 16.0232 20.7418C13.6014 21.07 11.1486 21.07 8.72679 20.7418Z" fill="#1F87D2"/>
<path d="M19.1241 9.5V10.2041C19.1241 11.0491 19.3653 11.8752 19.8172 12.5782L20.9246 14.3012C21.9362 15.8749 21.164 18.0139 19.4046 18.5116C14.8023 19.8134 9.94774 19.8134 5.34536 18.5116C3.58605 18.0139 2.81382 15.8749 3.82536 14.3012L4.9328 12.5782C5.38472 11.8752 5.62587 11.0491 5.62587 10.2041V9.5C5.62587 5.63401 8.64756 2.5 12.375 2.5C16.1024 2.5 19.1241 5.63401 19.1241 9.5Z" fill="#1F87D2"/>
</svg>
