<svg width="25" height="25" viewBox="0 0 25 25" fill="none" xmlns="http://www.w3.org/2000/svg">
<path d="M8.375 3C8.375 2.58579 8.03921 2.25 7.625 2.25C7.21079 2.25 6.875 2.58579 6.875 3V4.57926C5.43567 4.69451 4.49077 4.97737 3.79657 5.67157C3.10237 6.36577 2.81951 7.31067 2.70426 8.75H22.5457C22.4305 7.31067 22.1476 6.36577 21.4534 5.67157C20.7592 4.97737 19.8143 4.69451 18.375 4.57926V3C18.375 2.58579 18.0392 2.25 17.625 2.25C17.2108 2.25 16.875 2.58579 16.875 3V4.5129C16.2097 4.5 15.464 4.5 14.625 4.5H10.625C9.78597 4.5 9.04027 4.5 8.375 4.5129V3Z" fill="#1F87D2"/>
<path fill-rule="evenodd" clip-rule="evenodd" d="M22.625 12.5V14.5C22.625 18.2712 22.625 20.1569 21.4534 21.3284C20.2819 22.5 18.3962 22.5 14.625 22.5H10.625C6.85376 22.5 4.96815 22.5 3.79657 21.3284C2.625 20.1569 2.625 18.2712 2.625 14.5V12.5C2.625 11.661 2.625 10.9153 2.6379 10.25H22.6121C22.625 10.9153 22.625 11.661 22.625 12.5ZM17.125 18.5C17.9534 18.5 18.625 17.8284 18.625 17C18.625 16.1716 17.9534 15.5 17.125 15.5C16.2966 15.5 15.625 16.1716 15.625 17C15.625 17.8284 16.2966 18.5 17.125 18.5Z" fill="#1F87D2"/>
</svg>
