<svg width="25" height="25" viewBox="0 0 25 25" fill="none" xmlns="http://www.w3.org/2000/svg">
<path fill-rule="evenodd" clip-rule="evenodd" d="M3.3942 8.32274C2.875 9.27128 2.875 10.4155 2.875 12.7039V14.225C2.875 18.1258 2.875 20.0763 4.04657 21.2881C5.21815 22.5 7.10376 22.5 10.875 22.5H14.875C18.6462 22.5 20.5319 22.5 21.7034 21.2881C22.875 20.0763 22.875 18.1258 22.875 14.225V12.7039C22.875 10.4155 22.875 9.27128 22.3558 8.32274C21.8366 7.37421 20.8881 6.78551 18.991 5.60812L16.991 4.36687C14.9856 3.12229 13.9829 2.5 12.875 2.5C11.7671 2.5 10.7644 3.12229 8.75903 4.36687L6.75903 5.60813C4.86195 6.78551 3.9134 7.37421 3.3942 8.32274ZM9.875 17.75C9.46079 17.75 9.125 18.0858 9.125 18.5C9.125 18.9142 9.46079 19.25 9.875 19.25H15.875C16.2892 19.25 16.625 18.9142 16.625 18.5C16.625 18.0858 16.2892 17.75 15.875 17.75H9.875Z" fill="#1F87D2"/>
</svg>
