<svg width="25" height="25" viewBox="0 0 25 25" fill="none" xmlns="http://www.w3.org/2000/svg">
<path fill-rule="evenodd" clip-rule="evenodd" d="M12.5527 2.5C11.4389 2.5 10.4245 3.1007 8.39581 4.30211L7.70966 4.70846C5.68094 5.90987 4.66658 6.51057 4.10966 7.5C3.55273 8.48943 3.55273 9.69084 3.55273 12.0937V12.9063C3.55273 15.3092 3.55273 16.5106 4.10966 17.5C4.66658 18.4894 5.68094 19.0901 7.70966 20.2915L8.39581 20.6979C10.4245 21.8993 11.4389 22.5 12.5527 22.5C13.6666 22.5 14.6809 21.8993 16.7097 20.6979L17.3958 20.2915C19.4245 19.0901 20.4389 18.4894 20.9958 17.5C21.5527 16.5106 21.5527 15.3092 21.5527 12.9063V12.0937C21.5527 9.69084 21.5527 8.48943 20.9958 7.5C20.4389 6.51057 19.4245 5.90987 17.3958 4.70846L16.7097 4.30211C14.6809 3.1007 13.6666 2.5 12.5527 2.5ZM8.80273 12.5C8.80273 10.4289 10.4817 8.75 12.5527 8.75C14.6238 8.75 16.3027 10.4289 16.3027 12.5C16.3027 14.5711 14.6238 16.25 12.5527 16.25C10.4817 16.25 8.80273 14.5711 8.80273 12.5Z" fill="#1F87D2"/>
</svg>
