<svg width="33" height="32" viewBox="0 0 33 32" fill="none" xmlns="http://www.w3.org/2000/svg">
<path d="M16.5 0C7.66343 0 0.5 7.16343 0.5 16C0.5 24.8366 7.66343 32 16.5 32C25.3366 32 32.5 24.8366 32.5 16C32.5 7.16343 25.3366 0 16.5 0ZM23.4634 23.2204C23.26 23.5685 22.8938 23.7626 22.5178 23.7626C22.324 23.7626 22.1338 23.711 21.9667 23.613C19.0915 21.9327 15.7699 21.6626 13.4892 21.732C10.9628 21.8088 9.11007 22.3076 9.09166 22.3126C8.50928 22.4717 7.90744 22.129 7.74769 21.5467C7.58801 20.9645 7.92952 20.363 8.5116 20.2027C8.59511 20.1797 10.5888 19.6382 13.3612 19.5467C14.9943 19.4929 16.5664 19.6067 18.0333 19.885C19.8912 20.2374 21.5861 20.8561 23.0708 21.7238C23.5926 22.0286 23.7683 22.6988 23.4634 23.2204ZM25.4975 18.9957C25.2566 19.4081 24.8229 19.6379 24.3774 19.638C24.1553 19.638 23.9303 19.5809 23.7246 19.4608C20.319 17.4704 16.3843 17.1506 13.6828 17.2327C10.6902 17.3238 8.49559 17.9145 8.47381 17.9205C7.78413 18.1087 7.0711 17.7031 6.88186 17.0133C6.6927 16.3236 7.09729 15.6112 7.78675 15.4212C7.88567 15.394 10.2472 14.7525 13.5312 14.6442C15.4657 14.5805 17.3279 14.7152 19.0654 15.0448C21.2663 15.4624 23.2738 16.1952 25.0325 17.2229C25.6505 17.584 25.8587 18.3778 25.4975 18.9957ZM26.748 15.1545C26.4755 15.1545 26.1995 15.0844 25.9473 14.937C17.8505 10.2051 7.34736 13.0182 7.24223 13.0472C6.39571 13.2805 5.52061 12.7833 5.28744 11.9369C5.05421 11.0904 5.55136 10.2153 6.3978 9.9821C6.5191 9.94865 9.41581 9.16184 13.444 9.02902C15.817 8.9509 18.101 9.11612 20.2323 9.52041C22.9318 10.0325 25.3944 10.9314 27.5515 12.192C28.3095 12.635 28.5649 13.6086 28.1219 14.3666C27.8264 14.8724 27.2944 15.1545 26.748 15.1545Z" fill="#00D95F"/>
</svg>
